<svg id="redBoost" style="width: 30px; height: 30px; display: none">
        <rect width="30" height="30" fill="rgb(150,255,150)"></rect>
        <rect
          id="redBoost_cooldown"
          width="30"
          height="0"
          style="fill: rgb(0, 0, 0)"
          opacity="0.45"
        ></rect>
        <path
          fill="rgb(237, 82, 73)"
          stroke="rgb(0,0,0)"
          stroke-width="1"
          d="M-3 -3C-9 -15 9 -15 3 -3"
          transform="translate(15,15)"
        ></path>
        <path
          fill="rgb(237, 82, 73)"
          stroke="rgb(0,0,0)"
          stroke-width="1"
          d="M-3 -3C-9 -15 9 -15 3 -3"
          transform="translate(15,15) rotate(90)"
        ></path>
        <path
          fill="rgb(237, 82, 73)"
          stroke="rgb(0,0,0)"
          stroke-width="1"
          d="M-3 -3C-9 -15 9 -15 3 -3"
          transform="translate(15,15) rotate(180)"
        ></path>
        <path
          fill="rgb(237, 82, 73)"
          stroke="rgb(0,0,0)"
          stroke-width="1"
          d="M-3 -3C-9 -15 9 -15 3 -3"
          transform="translate(15,15) rotate(270)"
        ></path>
        <rect x="12" y="12" width="6" height="6" fill="rgb(237, 82, 73)"></rect>
        <path
          stroke="rgb(255,255,255)"
          stroke-width="2"
          d="M10 15L20 15M15 10L15 20"
        ></path>
        <text
          id="redBoost_amount"
          x="28"
          y="28"
          style="font-family: calibri; font-size: 13px"
          text-anchor="end"
        ></text>
      </svg>
