<svg
  id="sunflowerFieldWinds"
  xmlns="http://www.w3.org/2000/svg"
  width="30"
  height="30"
  viewBox="0 0 30 30"
>
  <rect width="30" height="30" fill="rgb(230,230,255)" />
  <rect
    id="sunflowerFieldWinds_cooldown"
    width="30"
    height="0"
    fill="rgb(0,0,0)"
    opacity="0.45"
  />
  <g transform="translate(5,5) scale(0.7,0.7)">
    <path
      d="M-2 0C -10 -18 10 -18 2 0M-2 0C -10 18 10 18 2 0"
      fill="rgb(255,255,0)"
      stroke="#57b5b1"
      stroke-width="2"
      transform="translate(15,15)"
    />
    <path
      d="M-2 0C -10 -18 10 -18 2 0M-2 0C -10 18 10 18 2 0"
      fill="rgb(255,255,0)"
      stroke="#57b5b1"
      stroke-width="2"
      transform="translate(15,15) rotate(45)"
    />
    <path
      d="M-2 0C -10 -18 10 -18 2 0M-2 0C -10 18 10 18 2 0"
      fill="rgb(255,255,0)"
      stroke="#57b5b1"
      stroke-width="2"
      transform="translate(15,15) rotate(90)"
    />
    <path
      d="M-2 0C -10 -18 10 -18 2 0M-2 0C -10 18 10 18 2 0"
      fill="rgb(255,255,0)"
      stroke="#57b5b1"
      stroke-width="2"
      transform="translate(15,15) rotate(135)"
    />
    <circle cx="15" cy="15" r="5" fill="rgb(145,101,29)" />
  </g>
  <text
    id="sunflowerFieldWinds_amount"
    x="28"
    y="28"
    font-family="calibri"
    font-size="11px"
    text-anchor="end"
  />
</svg>